<?xml version="1.0" encoding="UTF-8"?>
<svg version="1.1" xmlns="http://www.w3.org/2000/svg" width="35" height="36">
<path d="M0 0 C1.49498913 2.98997825 1.11577446 5.70042775 1 9 C0.67 9.99 0.34 10.98 0 12 C1.36182297 15.17758693 2.54859213 17.54859213 5 20 C2.36660393 20.73149891 0.5438281 21.1439545 -2.125 20.4375 C-4.75952 18.41770134 -5.69469747 16.00219582 -7 13 C-7.66 15.64 -8.32 18.28 -9 21 C-10.65 20.67 -12.3 20.34 -14 20 C-15.09587955 15.75448144 -14.92865836 12.0407161 -14.5625 7.6875 C-14.46066406 6.43324219 -14.35882813 5.17898437 -14.25390625 3.88671875 C-14.17011719 2.93410156 -14.08632812 1.98148437 -14 1 C-14.66 1 -15.32 1 -16 1 C-16 0.34 -16 -0.32 -16 -1 C-14.27277272 -1.22384382 -12.54303993 -1.42839969 -10.8125 -1.625 C-9.36810547 -1.79902344 -9.36810547 -1.79902344 -7.89453125 -1.9765625 C-4.72230157 -2.00224857 -2.79889628 -1.4615906 0 0 Z M-8 2 C-8 4.31 -8 6.62 -8 9 C-7.01 8.67 -6.02 8.34 -5 8 C-4.26676204 5.98491642 -4.26676204 5.98491642 -4 4 C-5.32 3.34 -6.64 2.68 -8 2 Z " fill="#194E5E" transform="translate(29,5)"/>
<path d="M0 0 C1.98 0 3.96 0 6 0 C6 5.94 6 11.88 6 18 C5.34 18 4.68 18 4 18 C3.67 19.98 3.34 21.96 3 24 C1.68 24.33 0.36 24.66 -1 25 C-0.87431641 24.14341797 -0.87431641 24.14341797 -0.74609375 23.26953125 C0.04957092 16.93442897 -0.18518573 11.03366477 -0.84375 4.6875 C-1 2 -1 2 0 0 Z " fill="#1C8FA3" transform="translate(5,5)"/>
<path d="M0 0 C2.97 0.495 2.97 0.495 6 1 C6.125 7.625 6.125 7.625 5 11 C6.36182297 14.17758693 7.54859213 16.54859213 10 19 C7.36660393 19.73149891 5.5438281 20.1439545 2.875 19.4375 C0.19610367 17.38367948 -0.73858478 15.09046729 -2 12 C-2 11.01 -2 10.02 -2 9 C-1.34 8.67 -0.68 8.34 0 8 C0 5.36 0 2.72 0 0 Z " fill="#166E86" transform="translate(24,6)"/>
<path d="M0 0 C0.99 0 1.98 0 3 0 C3 6.6 3 13.2 3 20 C1.35 19.67 -0.3 19.34 -2 19 C-1.34 12.73 -0.68 6.46 0 0 Z " fill="#20A7C1" transform="translate(17,6)"/>
<path d="M0 0 C2.97 0.495 2.97 0.495 6 1 C6 3.31 6 5.62 6 8 C4.68 8.33 3.36 8.66 2 9 C2 9.66 2 10.32 2 11 C0.68 10.34 -0.64 9.68 -2 9 C-1.34 8.67 -0.68 8.34 0 8 C0 5.36 0 2.72 0 0 Z " fill="#22A6BF" transform="translate(24,6)"/>
<path d="M0 0 C1.9375 0.8125 1.9375 0.8125 4 2 C4.33 2.99 4.66 3.98 5 5 C5.66 5.66 6.32 6.32 7 7 C1.25 6.25 1.25 6.25 -1 4 C-0.625 1.875 -0.625 1.875 0 0 Z " fill="#239BAF" transform="translate(27,18)"/>
<path d="M0 0 C0.33 0 0.66 0 1 0 C1 1.98 1 3.96 1 6 C1.99 6.33 2.98 6.66 4 7 C3.01 7 2.02 7 1 7 C1 7.66 1 8.32 1 9 C-0.32 8.34 -1.64 7.68 -3 7 C-2.34 6.67 -1.68 6.34 -1 6 C-0.34227572 2.97065509 -0.34227572 2.97065509 0 0 Z " fill="#249BB1" transform="translate(25,8)"/>
<path d="" fill="#000000" transform="translate(0,0)"/>
<path d="" fill="#000000" transform="translate(0,0)"/>
<path d="" fill="#FF0000" transform="translate(0,0)"/>
<path d="" fill="#000000" transform="translate(0,0)"/>
<path d="" fill="#000000" transform="translate(0,0)"/>
<path d="" fill="#000000" transform="translate(0,0)"/>
<path d="" fill="#000000" transform="translate(0,0)"/>
<path d="" fill="#000000" transform="translate(0,0)"/>
<path d="" fill="#000000" transform="translate(0,0)"/>
<path d="" fill="#000000" transform="translate(0,0)"/>
<path d="" fill="#000000" transform="translate(0,0)"/>
<path d="" fill="#000000" transform="translate(0,0)"/>
<path d="" fill="#000000" transform="translate(0,0)"/>
<path d="" fill="#FF0000" transform="translate(0,0)"/>
<path d="" fill="#FE0000" transform="translate(0,0)"/>
<path d="" fill="#000000" transform="translate(0,0)"/>
<path d="" fill="#010000" transform="translate(0,0)"/>
<path d="" fill="#FE0000" transform="translate(0,0)"/>
<path d="" fill="#010000" transform="translate(0,0)"/>
<path d="" fill="#FF0000" transform="translate(0,0)"/>
<path d="" fill="#000000" transform="translate(0,0)"/>
<path d="" fill="#FF0000" transform="translate(0,0)"/>
<path d="" fill="#010000" transform="translate(0,0)"/>
<path d="" fill="#000000" transform="translate(0,0)"/>
<path d="" fill="#000000" transform="translate(0,0)"/>
<path d="" fill="#000000" transform="translate(0,0)"/>
<path d="" fill="#010000" transform="translate(0,0)"/>
<path d="" fill="#010000" transform="translate(0,0)"/>
<path d="" fill="#FF0000" transform="translate(0,0)"/>
<path d="" fill="#000000" transform="translate(0,0)"/>
<path d="" fill="#000000" transform="translate(0,0)"/>
<path d="" fill="#000000" transform="translate(0,0)"/>
<path d="" fill="#000000" transform="translate(0,0)"/>
<path d="" fill="#000000" transform="translate(0,0)"/>
<path d="" fill="#000000" transform="translate(0,0)"/>
<path d="" fill="#000000" transform="translate(0,0)"/>
</svg>
